<svg xmlns="http://www.w3.org/2000/svg" width="766.078" height="538.472" viewBox="0 0 766.078 538.472"><defs><style>.a{opacity:0.4;}.b{fill:#fff;}</style></defs><g class="a" transform="translate(-210.066 -4002.21)"><path class="b" d="M210.066,4541.748a292.584,292.584,0,0,0,29.422-2.66l7.316-1.019,7.289-1.2c2.426-.419,4.863-.769,7.279-1.244l7.252-1.4c19.32-3.821,38.44-8.589,57.328-14.128A822.825,822.825,0,0,0,436.2,4478.181a984.093,984.093,0,0,0,103.749-55.992l12.52-7.781c2.076-1.312,4.195-2.558,6.237-3.924l6.13-4.094c8.161-5.476,16.37-10.878,24.487-16.41l23.962-17.169,5.989-4.29,5.851-4.481,11.691-8.972,11.688-8.97,2.921-2.244,2.848-2.339,5.695-4.675,22.776-18.7c7.451-6.4,14.788-12.934,22.186-19.394l11.075-9.713c3.644-3.29,7.186-6.695,10.784-10.037l21.506-20.137c.891-.844,1.8-1.665,2.677-2.529l2.606-2.6,5.212-5.206,10.423-10.41,10.422-10.408,5.2-5.212,5.044-5.368,20.17-21.471c53.415-57.6,102.556-119.1,147.947-183.189l12.872,9.284c-46.818,63.81-97.373,124.938-152.152,182.062L798.041,4225.1l-5.169,5.319-5.328,5.164L776.87,4245.89,766.2,4256.2l-5.336,5.152-2.668,2.576c-.893.855-1.827,1.667-2.739,2.5l-22,19.916c-3.68,3.3-7.3,6.669-11.027,9.92l-11.316,9.6c-7.558,6.38-15.053,12.831-22.661,19.146l-23.242,18.437-5.81,4.608-2.9,2.3-2.979,2.21L641.6,4361.4l-11.915,8.831-5.961,4.408-6.1,4.218-24.394,16.865c-8.261,5.43-16.61,10.728-24.908,16.094l-6.233,4.012c-2.076,1.339-4.229,2.558-6.339,3.843l-12.722,7.614a989.14,989.14,0,0,1-105.2,54.517A825.913,825.913,0,0,1,326.5,4522c-19.032,5.236-38.275,9.694-57.69,13.2l-7.286,1.283c-2.428.435-4.876.746-7.312,1.124l-7.318,1.078-7.342.9A292.922,292.922,0,0,1,210.066,4541.748Z" transform="translate(0 -1.065)"/><g transform="translate(862.112 4002.21)"><path class="b" d="M1038.611,4123.778a6.452,6.452,0,0,1-6.062-6.826l5.683-98.551-91.711,36.521a6.454,6.454,0,1,1-4.778-11.99l101.124-40.267a6.456,6.456,0,0,1,8.832,6.368l-6.265,108.667a6.474,6.474,0,0,1-6.823,6.079Z" transform="translate(-937.677 -4002.21)"/></g></g></svg>