<svg xmlns="http://www.w3.org/2000/svg" viewBox="0 0 542.87 133.65"><defs><style>.cls-1{fill:#ffffff;}</style></defs><g id="Layer_2" data-name="Layer 2"><g id="Layer_1-2" data-name="Layer 1"><g id="Layer_2-2" data-name="Layer 2"><g id="Layer_1-2-2" data-name="Layer 1-2"><rect class="cls-1" width="9.67" height="133.65" rx="1.05"/><rect class="cls-1" x="18.1" y="14.16" width="9.67" height="104.28" rx="1.05"/><rect class="cls-1" x="36.19" y="24.03" width="9.67" height="103.33" rx="1.05"/><rect class="cls-1" x="54.29" y="39.77" width="9.67" height="83.92" rx="1.05"/><rect class="cls-1" x="72.38" y="53.93" width="9.67" height="79.2" rx="1.05"/><rect class="cls-1" x="144.76" width="9.67" height="133.65" rx="1.05"/><rect class="cls-1" x="126.67" y="14.16" width="9.67" height="104.28" rx="1.05"/><rect class="cls-1" x="108.57" y="24.04" width="9.67" height="103.33" rx="1.05"/><rect class="cls-1" x="90.48" y="39.77" width="9.67" height="83.92" rx="1.05"/><path class="cls-1" d="M200.21,96.54h6.92a5.5,5.5,0,0,1,5.71,5.84,5.56,5.56,0,0,1-5.71,5.91h-3.67v6.19H200.2Zm6.3,8.92a2.82,2.82,0,0,0,3-3.08,2.76,2.76,0,0,0-2.95-3h-3.11v6.11Z"/><path class="cls-1" d="M227.55,96.24a9,9,0,0,1,9.26,8.85,2.71,2.71,0,0,1,0,.29,9.27,9.27,0,0,1-18.54.44,3.23,3.23,0,0,1,0-.44,9.05,9.05,0,0,1,9-9.14Zm0,15.56c3.28,0,5.91-2.73,5.91-6.42a5.92,5.92,0,1,0-11.82,0c0,3.72,2.62,6.42,5.91,6.42Z"/><path class="cls-1" d="M258.34,108.94a15.41,15.41,0,0,1,.33,1.9h.05a17.46,17.46,0,0,1,.3-1.9l3-12.4h3.36l-4.62,17.94H257l-2.75-10.63a20.76,20.76,0,0,1-.46-2.35h-.05a20.73,20.73,0,0,1-.45,2.35l-2.76,10.61h-3.76l-4.5-17.94h3.37l2.82,12.41a14.89,14.89,0,0,1,.31,1.89h.05a13.32,13.32,0,0,1,.32-1.89l3.24-12.41h2.83Z"/><path class="cls-1" d="M272,96.54h10.73v2.81h-7.48v4.72h6v2.8h-6v4.82h7.87v2.81H272Z"/><path class="cls-1" d="M290.35,96.54h5.77a8,8,0,0,1,3.61.52,5.08,5.08,0,0,1,2.93,4.9,5.16,5.16,0,0,1-3,4.9v0a4.53,4.53,0,0,1,.61.89l3.67,6.69h-3.64l-3.56-6.69h-3.15v6.69H290.3Zm6.19,8.39a2.61,2.61,0,0,0,2.83-2.83c0-1.77-.74-2.78-3.29-2.78h-2.47V105Z"/><path class="cls-1" d="M310.76,96.54h10.76v2.81H314v4.72h6v2.8h-6v4.82h7.87v2.81H310.76Z"/><path class="cls-1" d="M329.08,96.54h6.11c5.53,0,9.15,3.28,9.15,8.94s-3.62,9-9.15,9h-6.11ZM335,111.67c3.64,0,6-2.14,6-6.19s-2.38-6.13-6-6.13h-2.67v12.32Z"/><path class="cls-1" d="M361.46,96.54h6.42c3.23,0,5.53,1.67,5.53,4.63a4.24,4.24,0,0,1-2.17,3.83v0a4.2,4.2,0,0,1,2.91,4.22c0,3.59-2.88,5.21-6.19,5.21h-6.5Zm6.42,7.34a2.14,2.14,0,0,0,2.23-2.06v-.24a2.1,2.1,0,0,0-2-2.22,1.71,1.71,0,0,0-.32,0h-3.1v4.49Zm.33,7.81a2.59,2.59,0,0,0,.23-5.18h-3.71v5.18Z"/><path class="cls-1" d="M385,107l-6-10.44h3.67l2.82,5.26c.57,1.11,1.05,2.42,1.08,2.4h.05s.52-1.29,1.09-2.4l2.77-5.28h3.68L388.24,107v7.5H385Z"/><path class="cls-1" d="M410.25,96.54h10.3v2.81H413.5v5.07h5.94v2.81H413.5v7.25h-3.25Z"/><path class="cls-1" d="M427.4,96.54h10.74v2.81h-7.48v4.72h6v2.8h-6v4.82h7.87v2.81H427.4Z"/><path class="cls-1" d="M449.43,99.35h-5.89V96.54h15v2.81h-5.88v15.13h-3.26Z"/><path class="cls-1" d="M472.57,96.24a9.26,9.26,0,0,1,6.62,2.45l-1.57,2.42a7.89,7.89,0,0,0-4.91-1.89,5.85,5.85,0,0,0-6,6.16c0,3.34,2.3,6.42,6,6.42a7.71,7.71,0,0,0,5.2-2.27l1.72,2.35a9.66,9.66,0,0,1-7.05,2.9,9.28,9.28,0,0,1-.44-18.54Z"/><path class="cls-1" d="M486.47,96.54h3.25v7.6h8.21v-7.6h3.26v17.94h-3.26V107h-8.21v7.53h-3.25Z"/><path class="cls-1" d="M508.7,111.27h3.21v3.21H508.7Z"/><path class="cls-1" d="M528.53,109.88h-6.3l-1.51,4.6h-3.37l6.3-17.94h3.41l6.3,17.94H530Zm-3.15-10.23s-.4,1.77-.76,2.78l-1.57,4.8h4.72l-1.57-4.8c-.33-1-.71-2.78-.71-2.78Z"/><path class="cls-1" d="M539.49,96.54h3.26v17.94h-3.26Z"/><path class="cls-1" d="M251.91,79.66l-.08-40.77-20.23,34h-3.67L207.7,39.13V79.66H200v-56h6.55L229.92,63,253,23.7h6.56l.07,56Z"/><path class="cls-1" d="M313.38,61H279A13.4,13.4,0,0,0,284,70a16,16,0,0,0,10.43,3.39,15.7,15.7,0,0,0,12.23-5.11l4.24,5a18.58,18.58,0,0,1-7.17,5.12,27,27,0,0,1-21.46-1,19.58,19.58,0,0,1-8-7.72,22.1,22.1,0,0,1-2.84-11.18,22.4,22.4,0,0,1,2.76-11.12,19.67,19.67,0,0,1,7.59-7.71,21.6,21.6,0,0,1,10.91-2.76,21.28,21.28,0,0,1,10.83,2.76,19.38,19.38,0,0,1,7.42,7.71,23.58,23.58,0,0,1,2.68,11.35A19.94,19.94,0,0,1,313.38,61Zm-30-14.31a13.55,13.55,0,0,0-4.34,8.8h27.18a13.62,13.62,0,0,0-4.36-8.76,13.16,13.16,0,0,0-9.23-3.39A13.31,13.31,0,0,0,283.37,46.72Z"/><path class="cls-1" d="M348,77.18a11.42,11.42,0,0,1-4.16,2.2,17.33,17.33,0,0,1-5.11.76q-6.39,0-9.91-3.44t-3.52-9.83V43.61H318.1v-6.3h7.19V28H333v9.27h12.15v6.3H333V66.53a7.44,7.44,0,0,0,1.71,5.27,6.4,6.4,0,0,0,4.92,1.84,9.25,9.25,0,0,0,6-2Z"/><path class="cls-1" d="M380.05,77.18a11.5,11.5,0,0,1-4.16,2.2,17.33,17.33,0,0,1-5.11.76q-6.4,0-9.91-3.44t-3.52-9.83V43.61h-7.19v-6.3h7.19V28H365v9.27h12.15v6.3H365V66.53a7.4,7.4,0,0,0,1.72,5.27,6.38,6.38,0,0,0,4.91,1.84,9.26,9.26,0,0,0,6-2Z"/><path class="cls-1" d="M418.22,41.21q4.66,4.31,4.67,12.87V79.66h-7.27v-5.6a12.11,12.11,0,0,1-5.46,4.52,20.86,20.86,0,0,1-8.44,1.57q-7.11,0-11.39-3.43a11.05,11.05,0,0,1-4.3-9.06,11.12,11.12,0,0,1,4.08-9q4.08-3.41,12.95-3.4h12.15V53.75q0-4.95-2.88-7.59c-1.91-1.76-4.74-2.64-8.47-2.63a22.36,22.36,0,0,0-7.34,1.24,18.83,18.83,0,0,0-6.07,3.32l-3.2-5.77a23.24,23.24,0,0,1,7.83-4,32.61,32.61,0,0,1,9.67-1.4Q413.54,36.89,418.22,41.21Zm-7.64,31.06a11.24,11.24,0,0,0,4.64-5.56V60.79H403.39q-9.75,0-9.75,6.56a5.94,5.94,0,0,0,2.48,5A11.35,11.35,0,0,0,403,74.22,14.29,14.29,0,0,0,410.58,72.27Z"/><path class="cls-1" d="M437.12,20.35h7.65V79.66h-7.65Z"/><path class="cls-1" d="M497.55,61H463.18a13.34,13.34,0,0,0,4.92,9,16.06,16.06,0,0,0,10.43,3.39,15.71,15.71,0,0,0,12.23-5.11l4.24,5a18.55,18.55,0,0,1-7.16,5.12,27,27,0,0,1-21.46-1,19.52,19.52,0,0,1-8-7.72,22.1,22.1,0,0,1-2.84-11.18,22.5,22.5,0,0,1,2.75-11.12,19.76,19.76,0,0,1,7.6-7.71,21.57,21.57,0,0,1,10.91-2.76,21.28,21.28,0,0,1,10.83,2.76A19.43,19.43,0,0,1,495,47.36a23.58,23.58,0,0,1,2.68,11.35A22.42,22.42,0,0,1,497.55,61Zm-30-14.31a13.58,13.58,0,0,0-4.36,8.8h27.18A13.66,13.66,0,0,0,486,46.76a14.34,14.34,0,0,0-18.47,0Z"/><path class="cls-1" d="M534.17,79.66,521.94,63.43l-12.4,16.23H501L517.68,58l-15.89-20.7h8.55L522,52.56,533.6,37.29H542L526,58l16.87,21.67Z"/></g></g></g></g></svg>